<svg width="94" height="103" viewBox="0 0 94 103" fill="none" xmlns="http://www.w3.org/2000/svg">
<g clip-path="url(#clip0_111_135)">
<path d="M36.475 3H32.875C32.7646 3 32.675 3.08954 32.675 3.2V14.8C32.675 14.9105 32.7646 15 32.875 15H36.475C36.5855 15 36.675 14.9105 36.675 14.8V3.2C36.675 3.08954 36.5855 3 36.475 3Z" fill="#80D25B"/>
<path fill-rule="evenodd" clip-rule="evenodd" d="M34.5214 0.184373C34.6014 0.0884221 34.7487 0.0884223 34.8287 0.184373L39.4017 5.67196C39.5102 5.80223 39.4176 6 39.248 6H30.1021C29.9325 6 29.8399 5.80223 29.9484 5.67196L34.5214 0.184373Z" fill="#80D25B"/>
<path d="M48.475 3H44.875C44.7646 3 44.675 3.08954 44.675 3.2V14.8C44.675 14.9105 44.7646 15 44.875 15H48.475C48.5855 15 48.675 14.9105 48.675 14.8V3.2C48.675 3.08954 48.5855 3 48.475 3Z" fill="#80D25B"/>
<path fill-rule="evenodd" clip-rule="evenodd" d="M46.5214 0.184373C46.6014 0.0884221 46.7487 0.0884223 46.8287 0.184373L51.4017 5.67196C51.5102 5.80223 51.4176 6 51.248 6H42.1021C41.9325 6 41.8399 5.80223 41.9484 5.67196L46.5214 0.184373Z" fill="#80D25B"/>
<path d="M60.475 3H56.875C56.7646 3 56.675 3.08954 56.675 3.2V14.8C56.675 14.9105 56.7646 15 56.875 15H60.475C60.5855 15 60.675 14.9105 60.675 14.8V3.2C60.675 3.08954 60.5855 3 60.475 3Z" fill="#80D25B"/>
<path fill-rule="evenodd" clip-rule="evenodd" d="M58.5214 0.184373C58.6014 0.0884221 58.7487 0.0884223 58.8287 0.184373L63.4017 5.67196C63.5102 5.80223 63.4176 6 63.248 6H54.1021C53.9325 6 53.8399 5.80223 53.9484 5.67196L58.5214 0.184373Z" fill="#80D25B"/>
</g>
<path fill-rule="evenodd" clip-rule="evenodd" d="M45.7142 72.5238C54.1299 72.5238 60.9523 65.7015 60.9523 57.2857C60.9523 48.8699 45.7142 23 45.7142 23C45.7142 23 30.4761 48.8699 30.4761 57.2857C30.4761 65.7015 37.2984 72.5238 45.7142 72.5238Z" fill="#80D25B"/>
<path fill-rule="evenodd" clip-rule="evenodd" d="M59.6078 80.5815C60.9691 85.6622 66.3815 88.6263 71.6966 87.2021C77.0117 85.7779 90.8854 72.2007 90.8854 72.2007C90.8854 72.2007 72.0818 67.3793 66.7667 68.8035C61.4516 70.2277 58.2464 75.5009 59.6078 80.5815Z" fill="#80D25B"/>
<path fill-rule="evenodd" clip-rule="evenodd" d="M33.7426 80.58C32.3812 85.6606 26.9689 88.6247 21.6538 87.2005C16.3386 85.7764 2.46499 72.1991 2.46499 72.1991C2.46499 72.1991 21.2685 67.3778 26.5837 68.802C31.8988 70.2261 35.1039 75.4993 33.7426 80.58Z" fill="#80D25B"/>
<path d="M45.7141 101.095V51.4849" stroke="#22BA8E" stroke-width="2" stroke-linecap="square"/>
<path d="M68.5713 78.2381C55.9476 78.2381 45.7141 88.4716 45.7141 101.095" stroke="#22BA8E" stroke-width="2" stroke-linecap="round"/>
<path d="M22.857 78.2381C35.4806 78.2381 45.7141 88.4716 45.7141 101.095" stroke="#22BA8E" stroke-width="2" stroke-linecap="round"/>
<defs>
<clipPath id="clip0_111_135">
<rect width="34" height="15" fill="white" transform="translate(29.675)"/>
</clipPath>
</defs>
</svg>
