<svg width="20" height="20" viewBox="0 0 20 20" fill="none" xmlns="http://www.w3.org/2000/svg">
<path d="M14.3848 0.159973H4.81524C2.16381 0.159973 0 2.32378 0 4.97521V14.56C0 17.1962 2.16381 19.36 4.81524 19.36H14.4C17.0514 19.36 19.2152 17.1962 19.2152 14.5447V4.97521C19.2 2.32378 17.0362 0.159973 14.3848 0.159973ZM6.4 15.7028H3.65714V7.77902H6.4V15.7028ZM5.01333 6.55997C4.23619 6.55997 3.61143 5.93521 3.61143 5.15807C3.61143 4.38093 4.23619 3.75616 5.01333 3.75616C5.79048 3.75616 6.41524 4.38093 6.41524 5.15807C6.4 5.93521 5.77524 6.55997 5.01333 6.55997ZM15.5581 15.7028H15.5429H13.2571V11.8628C13.2571 10.9333 13.1352 9.74474 11.8705 9.74474C10.5752 9.74474 10.3619 10.7504 10.3619 11.8019V15.7028H8.07619V7.77902H10.2095V8.84569H10.2705C10.6057 8.23616 11.3829 7.76378 12.6019 7.76378C15.1162 7.76378 15.5581 9.2114 15.5581 11.36V15.7028Z" fill="#262626"/>
</svg>
