<svg width="90" height="90" viewBox="0 0 90 90" fill="none" xmlns="http://www.w3.org/2000/svg">
<path d="M6.2583 0V65.5629L30.3974 89.404H83.7417V0H6.2583Z" fill="#FFFCF6"/>
<path d="M83.7417 89.404V0H6.2583" fill="#E9F4F3"/>
<path d="M83.7417 41.7219V0H6.2583" fill="#D4E8E5"/>
<path d="M53.9404 89.553L30.0994 65.5629V89.404H53.9404V89.553Z" fill="#D6E5E3"/>
<path d="M6.2583 65.5629L30.0994 90V65.5629H6.2583Z" fill="#8AC4BD"/>
<path d="M15.3477 74.9503L30.0993 90V65.5629L17.7318 77.0364L15.3477 74.9503Z" fill="#67A59C"/>
<path d="M71.6722 62.7318L56.4735 63.9239L41.4238 62.7318L56.4735 32.9305L71.6722 62.7318Z" fill="#1589AD"/>
<path d="M56.4734 32.9305L71.6721 62.7318L56.4734 63.9239" fill="#035670"/>
<path d="M56.4734 58.5596L65.1158 49.9172L60.3476 40.3808L56.4734 36.5066L52.7483 40.3808L47.8311 49.9172L56.4734 58.5596Z" fill="#1EA4C4"/>
<path d="M56.4734 58.5596L65.1158 49.9172L60.3476 40.3808L56.4734 36.5066" fill="#066B93"/>
<path d="M63.0299 61.9868L40.6789 63.9239L18.3279 61.9868L40.6789 18.1788L63.0299 61.9868Z" fill="#1589AD"/>
<path d="M40.6787 18.1788L63.0297 61.9868L40.6787 63.9239" fill="#057091"/>
<path d="M40.6788 56.0265L53.3444 43.3609L46.1921 29.2053L40.6788 23.543L35.1656 29.2053L27.8643 43.3609L40.6788 56.0265Z" fill="#1EA4C4"/>
<path d="M40.6787 56.0265L53.3443 43.3609L46.192 29.2053L40.6787 23.543" fill="#1290AD"/>
<path d="M44.255 39.9338L47.9802 43.659L51.7053 39.9338L40.6788 18.1788L29.6523 39.9338L33.3775 43.659L37.1027 39.9338L40.6788 43.659L44.255 39.9338Z" fill="#9ADFEF"/>
<path d="M40.6787 43.659L44.2549 39.9338L47.98 43.659L51.7052 39.9338L40.6787 18.1788" fill="#7DD4E2"/>
<path d="M71.8211 61.0927H18.1787V64.0728H71.8211V61.0927Z" fill="#057091"/>
<path d="M65.1159 32.3344C68.9837 32.3344 72.1192 29.199 72.1192 25.3311C72.1192 21.4633 68.9837 18.3278 65.1159 18.3278C61.248 18.3278 58.1125 21.4633 58.1125 25.3311C58.1125 29.199 61.248 32.3344 65.1159 32.3344Z" fill="#F98D2B"/>
<path d="M70.1822 20.2649C72.8643 22.947 72.8643 27.4172 70.1822 30.2483C67.5001 33.0795 63.0299 32.9304 60.1987 30.2483" fill="#DD6E12"/>
</svg>
