<svg width="32" height="24" viewBox="0 0 32 24" fill="none" xmlns="http://www.w3.org/2000/svg">
<path d="M16 18C14.9669 18 13.9338 17.6611 13.0525 16.9744L0 6.825V21C0 22.6562 1.34312 24 3 24H29C30.6569 24 32 22.6569 32 21V6.825L18.95 16.9813C18.0688 17.6625 17.0312 18 16 18ZM1.01813 5.08125L14.2806 15.4C15.2925 16.1875 16.71 16.1875 17.7219 15.4L30.9844 5.08125C31.5688 4.58125 32 3.8125 32 3C32 1.34312 30.6562 0 29 0H3C1.34312 0 0 1.34312 0 3C0 3.8125 0.375625 4.58125 1.01813 5.08125Z" fill="#EF3A3A"/>
</svg>
