<svg width="25" height="16" viewBox="0 0 25 16" fill="none" xmlns="http://www.w3.org/2000/svg">
<path d="M7.05078 0.900879C3.15676 0.900879 0 4.07944 0 8.00002C0 11.9206 3.15699 15.0992 7.05078 15.0992C10.9446 15.0992 14.1016 11.9208 14.1016 8.00002C14.1016 4.0792 10.945 0.900879 7.05078 0.900879ZM18.3105 1.31674C16.3635 1.31674 14.7854 4.30967 14.7854 8.00014C14.7854 11.6906 16.3637 14.6837 18.3108 14.6837C20.2579 14.6837 21.8362 11.6908 21.8362 8.00014H21.8359C21.8359 4.30861 20.2578 1.31674 18.3106 1.31674H18.3105ZM23.76 2.01287C23.0754 2.01287 22.5204 4.69365 22.5204 8.00014C22.5204 11.3066 23.075 13.9874 23.76 13.9874C24.445 13.9874 25 11.3059 25 8.00002C25 4.69342 24.4447 2.01287 23.7601 2.01287H23.76Z" fill="black"/>
</svg>
