<svg width="24" height="24" viewBox="0 0 24 24" fill="none" xmlns="http://www.w3.org/2000/svg">
<path d="M23.9625 18.1406L22.8727 22.8656C22.7196 23.5336 22.1325 24.0009 21.4448 24.0009C9.61875 24 0 14.3812 0 2.55466C0 1.86747 0.467297 1.27966 1.13531 1.12731L5.86031 0.0374707C6.54844 -0.121998 7.25156 0.235189 7.5375 0.886845L9.71813 5.97278C9.97303 6.57184 9.80109 7.26981 9.29719 7.68137L6.77344 9.70778C8.36625 12.9525 11.0044 15.5906 14.25 17.1843L16.3162 14.6625C16.7235 14.1572 17.4267 13.9823 18.0258 14.2418L23.1117 16.4219C23.7234 16.7437 24.1219 17.4562 23.9625 18.1406Z" fill="#EF3A3A"/>
</svg>
